<mxfile host="drawio-plugin" modified="2023-05-15T13:26:49.316Z" agent="5.0 (Windows NT 6.2; Win64; x64) AppleWebKit/537.36 (KHTML, like Gecko) Chrome/104.0.5112.102 Safari/537.36" etag="DqtqaC6tSL1Zq_uXKZ7i" version="20.5.3" type="embed"><diagram id="C5RBs43oDa-KdzZeNtuy" name="Page-1"><mxGraphModel dx="1371" dy="1711" grid="1" gridSize="10" guides="1" tooltips="1" connect="1" arrows="1" fold="1" page="1" pageScale="1" pageWidth="827" pageHeight="1169" math="0" shadow="0"><root><mxCell id="WIyWlLk6GJQsqaUBKTNV-0"/><mxCell id="WIyWlLk6GJQsqaUBKTNV-1" parent="WIyWlLk6GJQsqaUBKTNV-0"/><mxCell id="z7qbPHOdlYPvQ8ULGpwd-0" value="MarkdownFile" style="swimlane;fontStyle=1;align=center;verticalAlign=top;childLayout=stackLayout;horizontal=1;startSize=26;horizontalStack=0;resizeParent=1;resizeParentMax=0;resizeLast=0;collapsible=1;marginBottom=0;whiteSpace=wrap;html=1;" parent="WIyWlLk6GJQsqaUBKTNV-1" vertex="1"><mxGeometry x="85" y="140" width="220" height="280" as="geometry"/></mxCell><mxCell id="z7qbPHOdlYPvQ8ULGpwd-1" value="- filename: String&lt;br&gt;- created: String&amp;nbsp;&lt;br&gt;- modified: String&lt;br&gt;- contents: String&lt;br&gt;- headings: ArrayList&amp;lt;Heading&amp;gt;&lt;br&gt;- path: String?" style="text;strokeColor=none;fillColor=none;align=left;verticalAlign=top;spacingLeft=4;spacingRight=4;overflow=hidden;rotatable=0;points=[[0,0.5],[1,0.5]];portConstraint=eastwest;whiteSpace=wrap;html=1;" parent="z7qbPHOdlYPvQ8ULGpwd-0" vertex="1"><mxGeometry y="26" width="220" height="94" as="geometry"/></mxCell><mxCell id="z7qbPHOdlYPvQ8ULGpwd-2" value="" style="line;strokeWidth=1;fillColor=none;align=left;verticalAlign=middle;spacingTop=-1;spacingLeft=3;spacingRight=3;rotatable=0;labelPosition=right;points=[];portConstraint=eastwest;strokeColor=inherit;" parent="z7qbPHOdlYPvQ8ULGpwd-0" vertex="1"><mxGeometry y="120" width="220" height="8" as="geometry"/></mxCell><mxCell id="z7qbPHOdlYPvQ8ULGpwd-3" value="&lt;div&gt;- getFilename(): String&lt;/div&gt;&lt;div&gt;- getCreate(): String&lt;/div&gt;&lt;div&gt;- getModified(): String&amp;nbsp;&lt;/div&gt;&lt;div&gt;- getContents(): String&lt;/div&gt;&lt;div&gt;- getHeadings(): String // to return&lt;/div&gt;&lt;div&gt;- getHeading(heading.name): Heading&lt;/div&gt;&lt;div&gt;- findHeading(): String&lt;/div&gt;&lt;div&gt;- transformHeading(): Heading&lt;/div&gt;&lt;div&gt;- output/addHeading(): Heading&lt;/div&gt;&lt;div&gt;- fileEnd(): Boolean&lt;/div&gt;" style="text;strokeColor=none;fillColor=none;align=left;verticalAlign=top;spacingLeft=4;spacingRight=4;overflow=hidden;rotatable=0;points=[[0,0.5],[1,0.5]];portConstraint=eastwest;whiteSpace=wrap;html=1;" parent="z7qbPHOdlYPvQ8ULGpwd-0" vertex="1"><mxGeometry y="128" width="220" height="152" as="geometry"/></mxCell><mxCell id="z7qbPHOdlYPvQ8ULGpwd-4" value="Heading" style="swimlane;fontStyle=1;align=center;verticalAlign=top;childLayout=stackLayout;horizontal=1;startSize=26;horizontalStack=0;resizeParent=1;resizeParentMax=0;resizeLast=0;collapsible=1;marginBottom=0;whiteSpace=wrap;html=1;" parent="WIyWlLk6GJQsqaUBKTNV-1" vertex="1"><mxGeometry x="340" y="260" width="180" height="190" as="geometry"/></mxCell><mxCell id="z7qbPHOdlYPvQ8ULGpwd-5" value="+ name: String&lt;br&gt;- bullets: ArrayList&amp;lt;Bullet&amp;gt;" style="text;strokeColor=none;fillColor=none;align=left;verticalAlign=top;spacingLeft=4;spacingRight=4;overflow=hidden;rotatable=0;points=[[0,0.5],[1,0.5]];portConstraint=eastwest;whiteSpace=wrap;html=1;" parent="z7qbPHOdlYPvQ8ULGpwd-4" vertex="1"><mxGeometry y="26" width="180" height="44" as="geometry"/></mxCell><mxCell id="z7qbPHOdlYPvQ8ULGpwd-6" value="" style="line;strokeWidth=1;fillColor=none;align=left;verticalAlign=middle;spacingTop=-1;spacingLeft=3;spacingRight=3;rotatable=0;labelPosition=right;points=[];portConstraint=eastwest;strokeColor=inherit;" parent="z7qbPHOdlYPvQ8ULGpwd-4" vertex="1"><mxGeometry y="70" width="180" height="8" as="geometry"/></mxCell><mxCell id="z7qbPHOdlYPvQ8ULGpwd-7" value="- getName(): String&amp;nbsp;&lt;br&gt;- getBullets() ArrayList&amp;lt;Bullet&amp;gt;&lt;br&gt;- findBullet(): String&lt;br&gt;- stringtoBullet(): Bullet&lt;br&gt;- addBullet(): void //adds bullet to arraylist of bullets&lt;br&gt;- isHeadingOver(): Boolean" style="text;strokeColor=none;fillColor=none;align=left;verticalAlign=top;spacingLeft=4;spacingRight=4;overflow=hidden;rotatable=0;points=[[0,0.5],[1,0.5]];portConstraint=eastwest;whiteSpace=wrap;html=1;" parent="z7qbPHOdlYPvQ8ULGpwd-4" vertex="1"><mxGeometry y="78" width="180" height="112" as="geometry"/></mxCell><mxCell id="z7qbPHOdlYPvQ8ULGpwd-8" value="Bullet" style="swimlane;fontStyle=1;align=center;verticalAlign=top;childLayout=stackLayout;horizontal=1;startSize=26;horizontalStack=0;resizeParent=1;resizeParentMax=0;resizeLast=0;collapsible=1;marginBottom=0;whiteSpace=wrap;html=1;" parent="WIyWlLk6GJQsqaUBKTNV-1" vertex="1"><mxGeometry x="560" y="350" width="180" height="120" as="geometry"/></mxCell><mxCell id="z7qbPHOdlYPvQ8ULGpwd-9" value="- point: String" style="text;strokeColor=none;fillColor=none;align=left;verticalAlign=top;spacingLeft=4;spacingRight=4;overflow=hidden;rotatable=0;points=[[0,0.5],[1,0.5]];portConstraint=eastwest;whiteSpace=wrap;html=1;" parent="z7qbPHOdlYPvQ8ULGpwd-8" vertex="1"><mxGeometry y="26" width="180" height="26" as="geometry"/></mxCell><mxCell id="z7qbPHOdlYPvQ8ULGpwd-10" value="" style="line;strokeWidth=1;fillColor=none;align=left;verticalAlign=middle;spacingTop=-1;spacingLeft=3;spacingRight=3;rotatable=0;labelPosition=right;points=[];portConstraint=eastwest;strokeColor=inherit;" parent="z7qbPHOdlYPvQ8ULGpwd-8" vertex="1"><mxGeometry y="52" width="180" height="8" as="geometry"/></mxCell><mxCell id="z7qbPHOdlYPvQ8ULGpwd-11" value="- transformBullet( ): Bullet&amp;nbsp; &lt;br&gt;- bulletEnd(): Boolean &lt;br&gt;&lt;span style=&quot;&quot;&gt; &lt;/span&gt;//not sure if method will be used" style="text;strokeColor=none;fillColor=none;align=left;verticalAlign=top;spacingLeft=4;spacingRight=4;overflow=hidden;rotatable=0;points=[[0,0.5],[1,0.5]];portConstraint=eastwest;whiteSpace=wrap;html=1;" parent="z7qbPHOdlYPvQ8ULGpwd-8" vertex="1"><mxGeometry y="60" width="180" height="60" as="geometry"/></mxCell><mxCell id="z7qbPHOdlYPvQ8ULGpwd-12" value="OutputFile" style="swimlane;fontStyle=1;align=center;verticalAlign=top;childLayout=stackLayout;horizontal=1;startSize=26;horizontalStack=0;resizeParent=1;resizeParentMax=0;resizeLast=0;collapsible=1;marginBottom=0;whiteSpace=wrap;html=1;" parent="WIyWlLk6GJQsqaUBKTNV-1" vertex="1"><mxGeometry x="85" y="-140" width="230" height="200" as="geometry"/></mxCell><mxCell id="z7qbPHOdlYPvQ8ULGpwd-13" value="+ files: ArrayList&amp;lt;MarkdownFile&amp;gt;&lt;br&gt;" style="text;strokeColor=none;fillColor=none;align=left;verticalAlign=top;spacingLeft=4;spacingRight=4;overflow=hidden;rotatable=0;points=[[0,0.5],[1,0.5]];portConstraint=eastwest;whiteSpace=wrap;html=1;" parent="z7qbPHOdlYPvQ8ULGpwd-12" vertex="1"><mxGeometry y="26" width="230" height="74" as="geometry"/></mxCell><mxCell id="z7qbPHOdlYPvQ8ULGpwd-14" value="" style="line;strokeWidth=1;fillColor=none;align=left;verticalAlign=middle;spacingTop=-1;spacingLeft=3;spacingRight=3;rotatable=0;labelPosition=right;points=[];portConstraint=eastwest;strokeColor=inherit;" parent="z7qbPHOdlYPvQ8ULGpwd-12" vertex="1"><mxGeometry y="100" width="230" height="8" as="geometry"/></mxCell><mxCell id="z7qbPHOdlYPvQ8ULGpwd-15" value="+ createFile(Path): OutputFile&lt;br&gt;+ sortAndFill(files, (enum: created, modified, filename)): OutputFile" style="text;strokeColor=none;fillColor=none;align=left;verticalAlign=top;spacingLeft=4;spacingRight=4;overflow=hidden;rotatable=0;points=[[0,0.5],[1,0.5]];portConstraint=eastwest;whiteSpace=wrap;html=1;" parent="z7qbPHOdlYPvQ8ULGpwd-12" vertex="1"><mxGeometry y="108" width="230" height="92" as="geometry"/></mxCell><mxCell id="z7qbPHOdlYPvQ8ULGpwd-16" value="Use" style="endArrow=open;endSize=12;dashed=1;html=1;rounded=0;exitX=1;exitY=0.5;exitDx=0;exitDy=0;entryX=0.5;entryY=0;entryDx=0;entryDy=0;" parent="WIyWlLk6GJQsqaUBKTNV-1" source="z7qbPHOdlYPvQ8ULGpwd-5" target="z7qbPHOdlYPvQ8ULGpwd-8" edge="1"><mxGeometry width="160" relative="1" as="geometry"><mxPoint x="660" y="210" as="sourcePoint"/><mxPoint x="630" y="220" as="targetPoint"/></mxGeometry></mxCell><mxCell id="z7qbPHOdlYPvQ8ULGpwd-18" value="Use" style="endArrow=open;endSize=12;dashed=1;html=1;rounded=0;exitX=1;exitY=0.5;exitDx=0;exitDy=0;entryX=0.5;entryY=0;entryDx=0;entryDy=0;" parent="WIyWlLk6GJQsqaUBKTNV-1" source="z7qbPHOdlYPvQ8ULGpwd-1" target="z7qbPHOdlYPvQ8ULGpwd-4" edge="1"><mxGeometry width="160" relative="1" as="geometry"><mxPoint x="330" y="290" as="sourcePoint"/><mxPoint x="490" y="290" as="targetPoint"/></mxGeometry></mxCell><mxCell id="z7qbPHOdlYPvQ8ULGpwd-19" value="Use" style="endArrow=open;endSize=12;dashed=1;html=1;rounded=0;exitX=0.495;exitY=1.022;exitDx=0;exitDy=0;exitPerimeter=0;entryX=0.5;entryY=0;entryDx=0;entryDy=0;" parent="WIyWlLk6GJQsqaUBKTNV-1" source="z7qbPHOdlYPvQ8ULGpwd-15" target="z7qbPHOdlYPvQ8ULGpwd-0" edge="1"><mxGeometry width="160" relative="1" as="geometry"><mxPoint x="330" y="140" as="sourcePoint"/><mxPoint x="490" y="140" as="targetPoint"/></mxGeometry></mxCell><mxCell id="z7qbPHOdlYPvQ8ULGpwd-22" value="Function to compare two different objects. Could end up being used to compare file fields for ordering or even text/symbols." style="shape=note;whiteSpace=wrap;html=1;backgroundOutline=1;darkOpacity=0.05;" parent="WIyWlLk6GJQsqaUBKTNV-1" vertex="1"><mxGeometry x="180" y="520" width="150" height="130" as="geometry"/></mxCell><mxCell id="z7qbPHOdlYPvQ8ULGpwd-23" value="&lt;p style=&quot;margin:0px;margin-top:4px;text-align:center;&quot;&gt;&lt;i&gt;&amp;lt;&amp;lt;Interface&amp;gt;&amp;gt;&lt;/i&gt;&lt;br&gt;&lt;b&gt;Comparable&amp;lt;T&amp;gt;&lt;/b&gt;&lt;/p&gt;&lt;hr size=&quot;1&quot;&gt;&lt;p style=&quot;margin:0px;margin-left:4px;&quot;&gt;&lt;span style=&quot;background-color: initial;&quot;&gt;+&amp;nbsp; compareTo&amp;lt;T o&amp;gt;: Int&lt;/span&gt;&lt;/p&gt;" style="verticalAlign=top;align=left;overflow=fill;fontSize=12;fontFamily=Helvetica;html=1;whiteSpace=wrap;" parent="WIyWlLk6GJQsqaUBKTNV-1" vertex="1"><mxGeometry x="-20" y="560" width="190" height="140" as="geometry"/></mxCell><mxCell id="z7qbPHOdlYPvQ8ULGpwd-24" value="stdin" style="shape=folder;fontStyle=1;spacingTop=10;tabWidth=40;tabHeight=14;tabPosition=left;html=1;whiteSpace=wrap;" parent="WIyWlLk6GJQsqaUBKTNV-1" vertex="1"><mxGeometry x="550" y="640" width="70" height="50" as="geometry"/></mxCell><mxCell id="z7qbPHOdlYPvQ8ULGpwd-25" value="stdout" style="shape=folder;fontStyle=1;spacingTop=10;tabWidth=40;tabHeight=14;tabPosition=left;html=1;whiteSpace=wrap;" parent="WIyWlLk6GJQsqaUBKTNV-1" vertex="1"><mxGeometry x="630" y="640" width="70" height="50" as="geometry"/></mxCell><mxCell id="z7qbPHOdlYPvQ8ULGpwd-26" value="Needed for both system.in and system.out commands. They are also needed for println and other functions needed for outputting final file.&amp;nbsp;" style="shape=note;whiteSpace=wrap;html=1;backgroundOutline=1;darkOpacity=0.05;" parent="WIyWlLk6GJQsqaUBKTNV-1" vertex="1"><mxGeometry x="540" y="530" width="170" height="100" as="geometry"/></mxCell><mxCell id="z7qbPHOdlYPvQ8ULGpwd-27" value="Also need these standard libraries to include toString and other functions to convert fields to desired data types. Similar to how comparable class will be used." style="shape=note;whiteSpace=wrap;html=1;backgroundOutline=1;darkOpacity=0.05;" parent="WIyWlLk6GJQsqaUBKTNV-1" vertex="1"><mxGeometry x="340" y="530" width="200" height="100" as="geometry"/></mxCell><mxCell id="z7qbPHOdlYPvQ8ULGpwd-28" value="Scanner" style="swimlane;fontStyle=1;align=center;verticalAlign=top;childLayout=stackLayout;horizontal=1;startSize=26;horizontalStack=0;resizeParent=1;resizeParentMax=0;resizeLast=0;collapsible=1;marginBottom=0;whiteSpace=wrap;html=1;" parent="WIyWlLk6GJQsqaUBKTNV-1" vertex="1"><mxGeometry x="450" width="160" height="160" as="geometry"/></mxCell><mxCell id="z7qbPHOdlYPvQ8ULGpwd-30" value="" style="line;strokeWidth=1;fillColor=none;align=left;verticalAlign=middle;spacingTop=-1;spacingLeft=3;spacingRight=3;rotatable=0;labelPosition=right;points=[];portConstraint=eastwest;strokeColor=inherit;" parent="z7qbPHOdlYPvQ8ULGpwd-28" vertex="1"><mxGeometry y="26" width="160" height="8" as="geometry"/></mxCell><mxCell id="z7qbPHOdlYPvQ8ULGpwd-31" value="- hasNext(): Boolean&lt;br&gt;- hasNextInt(): Boolean&lt;br&gt;- next(): String&lt;br&gt;- nextInt(): Int&lt;br&gt;- nextLine(): String&lt;br&gt;- isMdFile(): Boolean&lt;br&gt;inputFile(): MarkdownFile" style="text;strokeColor=none;fillColor=none;align=left;verticalAlign=top;spacingLeft=4;spacingRight=4;overflow=hidden;rotatable=0;points=[[0,0.5],[1,0.5]];portConstraint=eastwest;whiteSpace=wrap;html=1;" parent="z7qbPHOdlYPvQ8ULGpwd-28" vertex="1"><mxGeometry y="34" width="160" height="126" as="geometry"/></mxCell><mxCell id="z7qbPHOdlYPvQ8ULGpwd-32" value="Path" style="swimlane;fontStyle=1;align=center;verticalAlign=top;childLayout=stackLayout;horizontal=1;startSize=26;horizontalStack=0;resizeParent=1;resizeParentMax=0;resizeLast=0;collapsible=1;marginBottom=0;whiteSpace=wrap;html=1;" parent="WIyWlLk6GJQsqaUBKTNV-1" vertex="1"><mxGeometry x="634" width="160" height="100" as="geometry"/></mxCell><mxCell id="z7qbPHOdlYPvQ8ULGpwd-33" value="- path: String" style="text;strokeColor=none;fillColor=none;align=left;verticalAlign=top;spacingLeft=4;spacingRight=4;overflow=hidden;rotatable=0;points=[[0,0.5],[1,0.5]];portConstraint=eastwest;whiteSpace=wrap;html=1;" parent="z7qbPHOdlYPvQ8ULGpwd-32" vertex="1"><mxGeometry y="26" width="160" height="26" as="geometry"/></mxCell><mxCell id="z7qbPHOdlYPvQ8ULGpwd-34" value="" style="line;strokeWidth=1;fillColor=none;align=left;verticalAlign=middle;spacingTop=-1;spacingLeft=3;spacingRight=3;rotatable=0;labelPosition=right;points=[];portConstraint=eastwest;strokeColor=inherit;" parent="z7qbPHOdlYPvQ8ULGpwd-32" vertex="1"><mxGeometry y="52" width="160" height="8" as="geometry"/></mxCell><mxCell id="z7qbPHOdlYPvQ8ULGpwd-35" value="- pathType(): String&lt;br&gt;- workingDir(): String" style="text;strokeColor=none;fillColor=none;align=left;verticalAlign=top;spacingLeft=4;spacingRight=4;overflow=hidden;rotatable=0;points=[[0,0.5],[1,0.5]];portConstraint=eastwest;whiteSpace=wrap;html=1;" parent="z7qbPHOdlYPvQ8ULGpwd-32" vertex="1"><mxGeometry y="60" width="160" height="40" as="geometry"/></mxCell><mxCell id="z7qbPHOdlYPvQ8ULGpwd-36" value="Path has two functions: one to determine if the path is relative or absolute. The other finds what the current working directory is and returns it as a string" style="shape=note;whiteSpace=wrap;html=1;backgroundOutline=1;darkOpacity=0.05;" parent="WIyWlLk6GJQsqaUBKTNV-1" vertex="1"><mxGeometry x="844" y="-30" width="150" height="100" as="geometry"/></mxCell><mxCell id="z7qbPHOdlYPvQ8ULGpwd-37" value="&lt;p style=&quot;margin:0px;margin-top:4px;text-align:center;&quot;&gt;&lt;i&gt;&amp;lt;&amp;lt;Interface&amp;gt;&amp;gt;&lt;/i&gt;&lt;br&gt;&lt;b&gt;FileVisitor&amp;lt;T&amp;gt;&lt;/b&gt;&lt;/p&gt;&lt;hr size=&quot;1&quot;&gt;&lt;p style=&quot;margin:0px;margin-left:4px;&quot;&gt;- visitFile(): FileVisitResult&lt;/p&gt;&lt;p style=&quot;margin:0px;margin-left:4px;&quot;&gt;- postVisitDirectory(): FileVisitResult&lt;/p&gt;&lt;p style=&quot;margin:0px;margin-left:4px;&quot;&gt;- preVisitDirectory(): FileVisitResult&lt;/p&gt;&lt;p style=&quot;margin:0px;margin-left:4px;&quot;&gt;- visitFileFailed(): FileVisitResult&lt;/p&gt;" style="verticalAlign=top;align=left;overflow=fill;fontSize=12;fontFamily=Helvetica;html=1;whiteSpace=wrap;" parent="WIyWlLk6GJQsqaUBKTNV-1" vertex="1"><mxGeometry x="484" y="-150" width="256" height="120" as="geometry"/></mxCell><mxCell id="z7qbPHOdlYPvQ8ULGpwd-38" value="Use" style="endArrow=open;endSize=12;dashed=1;html=1;rounded=0;exitX=0.45;exitY=-0.003;exitDx=0;exitDy=0;exitPerimeter=0;entryX=0.5;entryY=1;entryDx=0;entryDy=0;" parent="WIyWlLk6GJQsqaUBKTNV-1" source="z7qbPHOdlYPvQ8ULGpwd-28" target="z7qbPHOdlYPvQ8ULGpwd-37" edge="1"><mxGeometry width="160" relative="1" as="geometry"><mxPoint x="474" y="-30" as="sourcePoint"/><mxPoint x="634" y="-30" as="targetPoint"/></mxGeometry></mxCell><mxCell id="z7qbPHOdlYPvQ8ULGpwd-39" value="Use" style="endArrow=open;endSize=12;dashed=1;html=1;rounded=0;entryX=0.658;entryY=0.994;entryDx=0;entryDy=0;entryPerimeter=0;exitX=0.5;exitY=0;exitDx=0;exitDy=0;" parent="WIyWlLk6GJQsqaUBKTNV-1" source="z7qbPHOdlYPvQ8ULGpwd-32" target="z7qbPHOdlYPvQ8ULGpwd-37" edge="1"><mxGeometry width="160" relative="1" as="geometry"><mxPoint x="524" y="160" as="sourcePoint"/><mxPoint x="684" y="160" as="targetPoint"/></mxGeometry></mxCell><mxCell id="z7qbPHOdlYPvQ8ULGpwd-41" value="Can Create Enum for the modified, filename, created inputs that must go into sort" style="shape=note;whiteSpace=wrap;html=1;backgroundOutline=1;darkOpacity=0.05;" parent="WIyWlLk6GJQsqaUBKTNV-1" vertex="1"><mxGeometry x="-10" y="-30" width="80" height="100" as="geometry"/></mxCell></root></mxGraphModel></diagram></mxfile>